<svg id="Capa_1" data-name="Capa 1" xmlns="http://www.w3.org/2000/svg" viewBox="0 0 194.68 104.6"><defs><style>.cls-1{fill:#1c1c1b;}.cls-2{fill:#fff;}</style></defs><path class="cls-1" d="M204.06,14.39a6.37,6.37,0,0,0-6-4.14H176.92a6.37,6.37,0,0,0-4.51,1.87l-4.67,4.67a6.37,6.37,0,0,0-6.37-6.54H145.14a6.37,6.37,0,0,0-5.2,2.71c-.07-.11-.13-.23-.21-.34a6.38,6.38,0,0,0-5-2.37H114.52a6.37,6.37,0,0,0-5.7,3.52l-6,12-.56-9.48a6.38,6.38,0,0,0-6.37-6H76.27a6.38,6.38,0,0,0-6.23,5L62.69,49.72a7,7,0,0,0-1.12-.12H43.64L50.44,18a6.38,6.38,0,0,0-6.24-7.71H28a6.38,6.38,0,0,0-6.23,5.05l-11,52.06a6.38,6.38,0,0,0,6.24,7.7h42a6.26,6.26,0,0,0,3.15-.84,6.32,6.32,0,0,0,3.1.84H78.55a6.38,6.38,0,0,0,4.93-2.34,6.4,6.4,0,0,0,4.94,2.34h11.86a6.38,6.38,0,0,0,4.94-2.34,6.38,6.38,0,0,0,4.94,2.34h13.38a6.35,6.35,0,0,0,5.25-2.79c.1.14.17.29.27.43a6.4,6.4,0,0,0,5,2.36h16.23A6.37,6.37,0,0,0,156.49,70l2.22-10.67,3.17-2.72,6.36,14.63a6.36,6.36,0,0,0,5.84,3.83h17.41a6.36,6.36,0,0,0,5.71-9.19l-13.78-28,18.86-16.42A6.38,6.38,0,0,0,204.06,14.39Z" transform="translate(-9.78 -10.25)"/><path class="cls-2" d="M61.57,56,58.91,68.69h-42L28,16.62H44.2L35.75,56Z" transform="translate(-9.78 -10.25)"/><path class="cls-2" d="M79.75,62.31l-1.2,6.38H65.16L76.27,16.62H95.91l2,33H98l16.51-33h20.25L123.54,68.69H110.16l9.62-39.78h-.21L100.28,68.69H88.42L86.18,28.91H86l-6.29,33.4" transform="translate(-9.78 -10.25)"/><path class="cls-2" d="M198.09,16.62,175.54,36.26l16,32.43H174.08l-9.8-22.56L152.91,55.9l-2.66,12.79H134l11.12-52.07h16.23l-4.23,19.46.14.18,19.64-19.64Z" transform="translate(-9.78 -10.25)"/><path class="cls-1" d="M119.33,80.34a6.89,6.89,0,0,0-3.11-.52h-1.86a7.59,7.59,0,0,0-3.11.48,4.24,4.24,0,0,0-1.19.79,3.5,3.5,0,0,0-1-.75,6.89,6.89,0,0,0-3.11-.52h-1.85a7.62,7.62,0,0,0-3.12.48,4.2,4.2,0,0,0-1.32,1,3.71,3.71,0,0,0-1.1-.91,6.89,6.89,0,0,0-3.11-.52H90.2a1.87,1.87,0,0,0-1.6.91,4,4,0,0,0-.59-.39,6.84,6.84,0,0,0-3.1-.52H83.05a7.68,7.68,0,0,0-3.12.48l-.33.17a1.47,1.47,0,0,0,.08-.3l.24-1.78a1.87,1.87,0,0,0-.45-1.5,1.9,1.9,0,0,0-1.42-.65H76a1.9,1.9,0,0,0-1.88,1.64l-.24,1.78a2.12,2.12,0,0,0,.06.75l-.09-.07a6.92,6.92,0,0,0-3.11-.52H68.88a7.56,7.56,0,0,0-3.11.48,4.38,4.38,0,0,0-1.19.79,3.66,3.66,0,0,0-1-.75,6.89,6.89,0,0,0-3.11-.52H58.65a7.68,7.68,0,0,0-3.12.48,4.31,4.31,0,0,0-1,.61,4.13,4.13,0,0,0-.79-.57,6.89,6.89,0,0,0-3.11-.52H47a1.83,1.83,0,0,0-1.43.71l-.31-.19a7,7,0,0,0-3.13-.52H36.83a1.86,1.86,0,0,0-1.59.9,4.74,4.74,0,0,0-.58-.38,6.87,6.87,0,0,0-3.1-.52H19.77a1.82,1.82,0,0,0,.11-.38l.15-1a1.93,1.93,0,0,0-.45-1.5,1.9,1.9,0,0,0-1.43-.65H13.67a1.91,1.91,0,0,0-1.89,1.64l-.14,1a1.94,1.94,0,0,0,.45,1.5,1.92,1.92,0,0,0,.5.41l-1.21,8.65a1.91,1.91,0,0,0-1.44,1.59l-.14,1a1.9,1.9,0,0,0,1.87,2.15h4.5a1.81,1.81,0,0,0,.94-.28,1.86,1.86,0,0,0,1,.28h2.05A1.89,1.89,0,0,0,22,92.64l1.13-8h.79L22.88,92.1a1.91,1.91,0,0,0,.44,1.51,1.88,1.88,0,0,0,1.44.65h2a1.9,1.9,0,0,0,1.88-1.62l1.13-8h.8l-1.06,7.48a1.9,1.9,0,0,0,.45,1.5,1.87,1.87,0,0,0,1.43.65h1.72L33,95.67a1.86,1.86,0,0,0,.45,1.51,1.94,1.94,0,0,0,1.42.65H36.9a1.89,1.89,0,0,0,1.87-1.63L39,94.26h1.59a7.68,7.68,0,0,0,3.12-.48l.31-.16a1.9,1.9,0,0,0,1.43.64h2a1.89,1.89,0,0,0,1.88-1.62l.9-6.36a1.87,1.87,0,0,0,1.29.52h1l-.38,2.75a5.88,5.88,0,0,0-.07.84A3.54,3.54,0,0,0,54,93.74a6.81,6.81,0,0,0,3.11.52H59a7.68,7.68,0,0,0,3.12-.48A4.33,4.33,0,0,0,63.29,93a3.84,3.84,0,0,0,1,.74,6.78,6.78,0,0,0,3.11.52h1.86a7.68,7.68,0,0,0,3.12-.48l.26-.13a1.91,1.91,0,0,0,1.4.61h2a1.89,1.89,0,0,0,1.68-1,4.24,4.24,0,0,0,1.78.87,9.68,9.68,0,0,0,2,.15h1.86a7.66,7.66,0,0,0,3.11-.48,5,5,0,0,0,.62-.35,1.13,1.13,0,0,0,.12.18,1.87,1.87,0,0,0,1.43.65h2.06a1.86,1.86,0,0,0,1.51-.79,2.3,2.3,0,0,0,1.53-.07,1.66,1.66,0,0,0,.16.21,1.86,1.86,0,0,0,1.43.65h2A1.86,1.86,0,0,0,99,93.39a5.93,5.93,0,0,0,.53.35,6.81,6.81,0,0,0,3.11.52h1.86a7.56,7.56,0,0,0,3.11-.48,4.22,4.22,0,0,0,1.18-.78,3.7,3.7,0,0,0,1,.74,6.74,6.74,0,0,0,3.1.52h1.86a7.73,7.73,0,0,0,3.13-.48,4.45,4.45,0,0,0,2.55-3.72l.08-.62a7.66,7.66,0,0,0,.06-.81,3.93,3.93,0,0,0-.5-2,1.88,1.88,0,0,0,1-1.46l.08-.61a6,6,0,0,0,.07-.82A3.57,3.57,0,0,0,119.33,80.34Z" transform="translate(-9.78 -10.25)"/><path class="cls-1" d="M197.31,80.34a6.89,6.89,0,0,0-3.11-.52h-1.86a7.54,7.54,0,0,0-3.1.48,4.14,4.14,0,0,0-1.2.79,3.5,3.5,0,0,0-1-.75,6.89,6.89,0,0,0-3.11-.52h-1.86a7.63,7.63,0,0,0-3.11.48,2.31,2.31,0,0,0-.35.18l.29-2.09a1.93,1.93,0,0,0-.45-1.5,1.9,1.9,0,0,0-1.43-.65H175a1.91,1.91,0,0,0-1.88,1.63l-.36,2.61-.23-.14a6.89,6.89,0,0,0-3.11-.52h-1.85a7.54,7.54,0,0,0-3.13.49,4.11,4.11,0,0,0-.6.34l-.13-.18a1.83,1.83,0,0,0-.65-.49l.22-1.59a1.9,1.9,0,0,0-1.87-2.15h-2.06a1.87,1.87,0,0,0-1.48.76l-.08-.11a1.9,1.9,0,0,0-1.42-.65h-2a1.9,1.9,0,0,0-1.88,1.64l-.24,1.78a.85.85,0,0,0,0,.16h-5a7.6,7.6,0,0,0-3.1.48,4.7,4.7,0,0,0-.7.41,2,2,0,0,0,.16-.54l.24-1.78a1.9,1.9,0,0,0-1.88-2.15h-2a1.94,1.94,0,0,0-.93.27,2,2,0,0,0-1-.27h-2a1.9,1.9,0,0,0-1.88,1.63l-.27,1.95h-1.59a7.72,7.72,0,0,0-3.11.48A4.41,4.41,0,0,0,126.56,84l-.78,5.54a5.46,5.46,0,0,0-.07.84,3.53,3.53,0,0,0,1.9,3.35,6.78,6.78,0,0,0,3.12.52H136a1.83,1.83,0,0,0,.92-.27,1.81,1.81,0,0,0,1,.27h2a2.19,2.19,0,0,0,.27,0,3.55,3.55,0,0,0,1.88,3.08,6.89,6.89,0,0,0,3.12.53h1.86a7.58,7.58,0,0,0,3.1-.49,4.3,4.3,0,0,0,2.43-3.08h1.79a1.88,1.88,0,0,0,1.86-1.63l.05-.28a3.27,3.27,0,0,0,1.37,1.33,6.73,6.73,0,0,0,3.13.54,1.89,1.89,0,0,0,1.56-.86,4.36,4.36,0,0,0,.58.38,6.78,6.78,0,0,0,3.11.52h5.3a1.74,1.74,0,0,0,.81-.21,1.78,1.78,0,0,0,.85.21h2a1.84,1.84,0,0,0,1.68-1.05,3.74,3.74,0,0,0,.75.53,6.76,6.76,0,0,0,3.11.52h1.86a7.66,7.66,0,0,0,3.11-.48,4.53,4.53,0,0,0,1.18-.78,3.65,3.65,0,0,0,1,.74,6.81,6.81,0,0,0,3.11.52h1.86a7.68,7.68,0,0,0,3.12-.48,4.42,4.42,0,0,0,2.56-3.72l.08-.62a6,6,0,0,0,.07-.81,4,4,0,0,0-.51-2,1.92,1.92,0,0,0,1.05-1.46l.08-.61a7.64,7.64,0,0,0,.06-.82A3.57,3.57,0,0,0,197.31,80.34Z" transform="translate(-9.78 -10.25)"/><path class="cls-2" d="M11.82,91.33H13l1.7-12.16H13.52l.15-1h4.48l-.14,1H16.79l-1.7,12.16h1.22l-.14,1h-4.5Z" transform="translate(-9.78 -10.25)"/><path class="cls-2" d="M26.81,92.37h-2l1.36-9.63H21.51l-1.37,9.63H18.09l1.5-10.65h12A5.32,5.32,0,0,1,33.8,82a1.68,1.68,0,0,1,.86,1.66,4.1,4.1,0,0,1,0,.57l-1.14,8.1h-2l1.26-9c.06-.36-.07-.57-.37-.65H28.18Z" transform="translate(-9.78 -10.25)"/><path class="cls-2" d="M44.38,82a1.68,1.68,0,0,1,.87,1.66,4.26,4.26,0,0,1,0,.57l-.79,5.54A2.64,2.64,0,0,1,43,92.05a6,6,0,0,1-2.34.32H37.39l-.49,3.56H34.84l2-14.21h5.29A5.36,5.36,0,0,1,44.38,82Zm-6.84,9.31h3.23c.55,0,.85,0,.9,0a.65.65,0,0,0,.56-.62l1.05-7.31c0-.32,0-.51-.18-.58A3.9,3.9,0,0,0,42,82.74H38.74Z" transform="translate(-9.78 -10.25)"/><path class="cls-2" d="M47.54,92.37h-2L47,81.72h3.69a5.28,5.28,0,0,1,2.24.32,1.67,1.67,0,0,1,.87,1.66,4.67,4.67,0,0,1,0,.57l-.09.64h-2l.21-1.51c0-.37-.07-.58-.37-.66H48.91Z" transform="translate(-9.78 -10.25)"/><path class="cls-2" d="M60.51,81.72a5.28,5.28,0,0,1,2.24.32,1.68,1.68,0,0,1,.87,1.66,4.72,4.72,0,0,1,0,.57l-.46,3.39H56.45l-.44,3c0,.35.08.56.38.62.06,0,.36,0,.9,0h1.86a4.61,4.61,0,0,0,1.14-.08.65.65,0,0,0,.33-.56l.13-.9h2a2.65,2.65,0,0,1-1.45,2.24,6.1,6.1,0,0,1-2.35.32H57.14a5.32,5.32,0,0,1-2.24-.32A1.68,1.68,0,0,1,54,90.39a4.86,4.86,0,0,1,0-.58l.77-5.54A2.6,2.6,0,0,1,56.31,82a6,6,0,0,1,2.34-.32Zm-3.92,4.91h4.62l.44-3.23c.06-.37-.07-.58-.37-.66H58.51a4.18,4.18,0,0,0-1.13.08c-.19.07-.31.26-.35.58Z" transform="translate(-9.78 -10.25)"/><path class="cls-2" d="M71.18,88.31a.49.49,0,0,0-.39-.64H68a5.51,5.51,0,0,1-2.25-.32,1.71,1.71,0,0,1-.87-1.67,3.29,3.29,0,0,1,0-.57l.11-.83A2.56,2.56,0,0,1,66.54,82a6,6,0,0,1,2.34-.32h1.86A5.28,5.28,0,0,1,73,82a1.68,1.68,0,0,1,.87,1.66,5.07,5.07,0,0,1,0,.57l-.08.62h-2l.21-1.49c.05-.37-.07-.58-.37-.66H68.75a4.18,4.18,0,0,0-1.13.08c-.19.07-.3.26-.35.58L66.9,86c-.06.36.08.58.4.64,0,0,.35,0,.89,0h1.87A5.35,5.35,0,0,1,72.3,87a1.69,1.69,0,0,1,.86,1.66,5.27,5.27,0,0,1,0,.57l-.08.61a2.61,2.61,0,0,1-1.46,2.24,6,6,0,0,1-2.34.32H67.37a5.28,5.28,0,0,1-2.24-.32,1.68,1.68,0,0,1-.87-1.66,3.9,3.9,0,0,1,0-.58h2l-.13.9c0,.35.08.56.39.62,0,0,.35,0,.89,0h1.87a4.67,4.67,0,0,0,1.14-.08.68.68,0,0,0,.34-.56Z" transform="translate(-9.78 -10.25)"/><path class="cls-2" d="M74,92.37,75.5,81.74h2L76.06,92.37Zm3.8-12.45H75.75L76,78.13h2Z" transform="translate(-9.78 -10.25)"/><path class="cls-2" d="M78.43,90.13l.82-5.86A2.6,2.6,0,0,1,80.71,82a6,6,0,0,1,2.34-.32h1.86a5.37,5.37,0,0,1,2.25.32A1.69,1.69,0,0,1,88,83.7a3.29,3.29,0,0,1,0,.57l-.77,5.54a2.62,2.62,0,0,1-1.46,2.24,6,6,0,0,1-2.33.32H81.55a7.79,7.79,0,0,1-1.61-.11A1.73,1.73,0,0,1,78.43,90.13Zm7.62-6.73c.06-.37-.06-.58-.36-.66H82.91a4.13,4.13,0,0,0-1.13.08c-.19.07-.31.26-.35.58l-1,7.31c0,.35.07.56.39.62,0,0,.35,0,.9,0h1.86a4.61,4.61,0,0,0,1.14-.08.67.67,0,0,0,.34-.56Z" transform="translate(-9.78 -10.25)"/><path class="cls-2" d="M90.75,92.37H88.69L90.2,81.72h5.29a5.37,5.37,0,0,1,2.25.32,1.69,1.69,0,0,1,.86,1.66,4.26,4.26,0,0,1,0,.57l-1.14,8.1h-2l1.25-9c.07-.37-.06-.58-.36-.66H92.11Z" transform="translate(-9.78 -10.25)"/><path class="cls-2" d="M106,81.72a5.28,5.28,0,0,1,2.24.32,1.67,1.67,0,0,1,.87,1.66,3.29,3.29,0,0,1,0,.57l-.46,3.39h-6.65l-.45,3c0,.35.08.56.39.62.05,0,.35,0,.89,0h1.86a4.61,4.61,0,0,0,1.14-.08.66.66,0,0,0,.34-.56l.13-.9h2.05a2.64,2.64,0,0,1-1.47,2.24,5.94,5.94,0,0,1-2.34.32h-1.86a5.35,5.35,0,0,1-2.24-.32,1.7,1.7,0,0,1-.87-1.66,3.56,3.56,0,0,1,.06-.58l.76-5.54A2.64,2.64,0,0,1,101.79,82a6,6,0,0,1,2.35-.32Zm-3.91,4.91h4.61l.45-3.23c0-.37-.07-.58-.37-.66H104a4.18,4.18,0,0,0-1.13.08c-.19.07-.3.26-.35.58Z" transform="translate(-9.78 -10.25)"/><path class="cls-2" d="M116.67,88.31a.51.51,0,0,0-.39-.64h-2.75a5.59,5.59,0,0,1-2.27-.32,1.72,1.72,0,0,1-.86-1.67,4.72,4.72,0,0,1,0-.57l.11-.83A2.58,2.58,0,0,1,112,82a6,6,0,0,1,2.34-.32h1.86a5.28,5.28,0,0,1,2.24.32,1.68,1.68,0,0,1,.87,1.66,5.07,5.07,0,0,1,0,.57l-.08.62h-2l.21-1.49c0-.37-.07-.58-.37-.66h-2.77a4.14,4.14,0,0,0-1.12.08c-.19.07-.3.26-.35.58L112.38,86c0,.36.08.58.4.64,0,0,.35,0,.9,0h1.86a5.26,5.26,0,0,1,2.23.32,1.67,1.67,0,0,1,.87,1.66,5.27,5.27,0,0,1,0,.57l-.08.61a2.64,2.64,0,0,1-1.45,2.24,6.1,6.1,0,0,1-2.35.32h-1.86a5.32,5.32,0,0,1-2.24-.32,1.68,1.68,0,0,1-.86-1.66,3.86,3.86,0,0,1,0-.58h2.06l-.13.9c-.06.35.07.56.38.62.05,0,.35,0,.9,0h1.86a4.61,4.61,0,0,0,1.14-.08.65.65,0,0,0,.33-.56Z" transform="translate(-9.78 -10.25)"/><path class="cls-2" d="M128.47,92.05a1.68,1.68,0,0,1-.86-1.66,4.24,4.24,0,0,1,0-.58l.79-5.54A2.58,2.58,0,0,1,129.88,82a6.07,6.07,0,0,1,2.34-.32h3.24l.5-3.59h2l-2,14.24h-5.29A5.39,5.39,0,0,1,128.47,92.05Zm6.85-9.31h-4.16a.71.71,0,0,0-.56.65l-1,7.31c-.05.29,0,.48.19.56a4.18,4.18,0,0,0,1.11.08h3.23Z" transform="translate(-9.78 -10.25)"/><path class="cls-2" d="M137.9,92.37l1.49-10.63h2.05L140,92.37Zm3.8-12.45h-2l.24-1.79h2Z" transform="translate(-9.78 -10.25)"/><path class="cls-2" d="M149,92.37h-3.24a5.31,5.31,0,0,1-2.25-.32,1.69,1.69,0,0,1-.86-1.66,4.51,4.51,0,0,1,0-.58l.79-5.54A2.6,2.6,0,0,1,144.89,82a5.92,5.92,0,0,1,2.32-.32h5.29l-1.63,11.65a2.64,2.64,0,0,1-1.46,2.24,6.18,6.18,0,0,1-2.33.32h-1.86a5.57,5.57,0,0,1-2.26-.32,1.71,1.71,0,0,1-.86-1.67,3.82,3.82,0,0,1,0-.57h2.07l-.12.88a.49.49,0,0,0,.38.64h2.76a4.69,4.69,0,0,0,1.12-.07.69.69,0,0,0,.34-.58Zm1.34-9.63h-3.22a4,4,0,0,0-1.11.08c-.18.07-.3.26-.34.58l-1,7.31c-.06.35.07.56.4.62,0,0,.35,0,.89,0h3.23Z" transform="translate(-9.78 -10.25)"/><path class="cls-2" d="M152.34,92.37l1.49-10.63h2L154.4,92.37Zm3.8-12.45h-2l.24-1.79h2Z" transform="translate(-9.78 -10.25)"/><path class="cls-2" d="M158.87,81.72l.49-3.59h2.06l-.5,3.59h1.37l-.14,1h-1.37l-1.13,7.91c0,.3,0,.48.21.57a4.15,4.15,0,0,0,1.09.08l-.14,1a5.31,5.31,0,0,1-2.25-.32,1.69,1.69,0,0,1-.86-1.67,3.15,3.15,0,0,1,0-.57l1-7h-1.38l.15-1Z" transform="translate(-9.78 -10.25)"/><path class="cls-2" d="M166.06,92.37a5.28,5.28,0,0,1-2.24-.32,1.7,1.7,0,0,1-.87-1.66,5.41,5.41,0,0,1,.05-.58l.08-.61A2.64,2.64,0,0,1,164.54,87a6.2,6.2,0,0,1,2.34-.32h3.24l.46-3.23c0-.37-.08-.58-.37-.66h-2.78a4.18,4.18,0,0,0-1.13.08c-.19.07-.31.26-.36.58l-.19,1.49h-2.06l.08-.62A2.63,2.63,0,0,1,165.23,82a6,6,0,0,1,2.35-.32h1.85a5.28,5.28,0,0,1,2.24.32,1.68,1.68,0,0,1,.87,1.66,3.07,3.07,0,0,1,0,.57l-1.13,8.1Zm.68-4.71a4.57,4.57,0,0,0-1.12.08.66.66,0,0,0-.35.58l-.35,2.39c0,.35.08.56.39.62.05,0,.35,0,.9,0h3.24l.52-3.69Z" transform="translate(-9.78 -10.25)"/><path class="cls-2" d="M173,92.37l2-14.24h2.05l-2,14.24Z" transform="translate(-9.78 -10.25)"/><path class="cls-2" d="M184,81.72a5.37,5.37,0,0,1,2.25.32,1.69,1.69,0,0,1,.86,1.66,3.29,3.29,0,0,1-.05.57l-.46,3.39h-6.66l-.44,3c-.05.35.08.56.39.62,0,0,.35,0,.9,0h1.85a4.61,4.61,0,0,0,1.14-.08.65.65,0,0,0,.33-.56l.13-.9h2a2.63,2.63,0,0,1-1.45,2.24,6.07,6.07,0,0,1-2.34.32h-1.86a5.34,5.34,0,0,1-2.25-.32,1.68,1.68,0,0,1-.86-1.66,4.57,4.57,0,0,1,0-.58l.77-5.54A2.62,2.62,0,0,1,179.77,82a6,6,0,0,1,2.34-.32Zm-3.92,4.91h4.62l.44-3.23c.06-.37-.06-.58-.36-.66H182a4.09,4.09,0,0,0-1.12.08c-.2.07-.32.26-.36.58Z" transform="translate(-9.78 -10.25)"/><path class="cls-2" d="M194.64,88.31a.49.49,0,0,0-.38-.64H191.5a5.51,5.51,0,0,1-2.25-.32,1.71,1.71,0,0,1-.87-1.67,3.29,3.29,0,0,1,.05-.57l.11-.83A2.56,2.56,0,0,1,190,82a6,6,0,0,1,2.34-.32h1.86a5.28,5.28,0,0,1,2.24.32,1.68,1.68,0,0,1,.87,1.66,5.07,5.07,0,0,1-.05.57l-.08.62h-2.05l.21-1.49c0-.37-.07-.58-.37-.66H192.2a4.14,4.14,0,0,0-1.12.08c-.19.07-.3.26-.35.58L190.36,86c-.06.36.08.58.4.64.05,0,.35,0,.89,0h1.86a5.34,5.34,0,0,1,2.25.32,1.69,1.69,0,0,1,.86,1.66,5.27,5.27,0,0,1-.05.57l-.08.61A2.61,2.61,0,0,1,195,92.05a6,6,0,0,1-2.34.32h-1.86a5.28,5.28,0,0,1-2.24-.32,1.68,1.68,0,0,1-.87-1.66,3.9,3.9,0,0,1,.05-.58h2l-.13.9c-.05.35.08.56.39.62,0,0,.35,0,.9,0h1.86a4.61,4.61,0,0,0,1.14-.08.68.68,0,0,0,.34-.56Z" transform="translate(-9.78 -10.25)"/><path class="cls-1" d="M41.91,101.8v12.87H39.83v-1.19a3.84,3.84,0,0,1-3.07,1.32,4.75,4.75,0,0,1,0-9.49,3.79,3.79,0,0,1,3,1.24V101.8ZM39.78,110a2.76,2.76,0,1,0-2.76,2.9A2.71,2.71,0,0,0,39.78,110Z" transform="translate(-9.78 -10.25)"/><path class="cls-1" d="M53.43,110.74H46.16a2.81,2.81,0,0,0,3,2.22,3.29,3.29,0,0,0,2.51-1l1.17,1.34a4.74,4.74,0,0,1-3.73,1.51C46,114.8,44,112.8,44,110a4.6,4.6,0,0,1,4.79-4.73,4.52,4.52,0,0,1,4.68,4.78C53.46,110.27,53.44,110.53,53.43,110.74Zm-7.29-1.44H51.4A2.53,2.53,0,0,0,48.78,107,2.56,2.56,0,0,0,46.14,109.3Z" transform="translate(-9.78 -10.25)"/><path class="cls-1" d="M68.83,108.46H71v4.84a7.65,7.65,0,0,1-4.75,1.55,6.2,6.2,0,0,1-6.54-6.25c0-3.62,2.77-6.24,6.57-6.24a6.29,6.29,0,0,1,4.88,2l-1.43,1.39a4.5,4.5,0,0,0-3.34-1.39,4.27,4.27,0,1,0,0,8.54,4.91,4.91,0,0,0,2.5-.62Z" transform="translate(-9.78 -10.25)"/><path class="cls-1" d="M79.08,105.31v2.06a3.25,3.25,0,0,0-.51-.05,2.53,2.53,0,0,0-2.69,2.86v4.49H73.72v-9.26h2.06v1.35A3.65,3.65,0,0,1,79.08,105.31Z" transform="translate(-9.78 -10.25)"/><path class="cls-1" d="M88.62,109.24v5.43H86.57v-1.12a3.31,3.31,0,0,1-2.92,1.25c-2.11,0-3.45-1.17-3.45-2.78s1-2.76,3.85-2.76h2.4v-.14c0-1.26-.77-2-2.31-2a4.59,4.59,0,0,0-2.81.92l-.85-1.58a6.54,6.54,0,0,1,3.92-1.14C87.07,105.31,88.62,106.57,88.62,109.24Zm-2.17,2.54V110.7H84.21c-1.47,0-1.87.56-1.87,1.23s.66,1.29,1.77,1.29A2.38,2.38,0,0,0,86.45,111.78Z" transform="translate(-9.78 -10.25)"/><path class="cls-1" d="M100.52,109.37v5.3H98.35v-5c0-1.65-.82-2.44-2.21-2.44-1.54,0-2.58.93-2.58,2.79v4.68H91.39v-9.26h2.06v1.2a4,4,0,0,1,3.2-1.3C98.87,105.31,100.52,106.57,100.52,109.37Z" transform="translate(-9.78 -10.25)"/><path class="cls-1" d="M110.52,104.42v3.7h5.87V110h-5.87v4.65h-2.25V102.53h8.86v1.89Z" transform="translate(-9.78 -10.25)"/><path class="cls-1" d="M118.08,110A4.94,4.94,0,1,1,123,114.8,4.66,4.66,0,0,1,118.08,110Zm7.69,0a2.75,2.75,0,1,0-2.76,2.9A2.7,2.7,0,0,0,125.77,110Z" transform="translate(-9.78 -10.25)"/><path class="cls-1" d="M135.39,105.31v2.06a3.13,3.13,0,0,0-.5-.05,2.52,2.52,0,0,0-2.69,2.86v4.49H130v-9.26h2.07v1.35A3.63,3.63,0,0,1,135.39,105.31Z" transform="translate(-9.78 -10.25)"/><path class="cls-1" d="M152.72,109.37v5.3h-2.17v-5c0-1.65-.76-2.44-2.08-2.44s-2.41.93-2.41,2.77v4.7h-2.17v-5c0-1.65-.76-2.44-2.08-2.44s-2.41.93-2.41,2.77v4.7h-2.17v-9.26h2.06v1.18a3.86,3.86,0,0,1,3-1.28,3.47,3.47,0,0,1,3.12,1.54,4.35,4.35,0,0,1,3.47-1.54C151.16,105.31,152.72,106.57,152.72,109.37Z" transform="translate(-9.78 -10.25)"/><path class="cls-1" d="M163.25,109.24v5.43H161.2v-1.12a3.3,3.3,0,0,1-2.91,1.25c-2.12,0-3.46-1.17-3.46-2.78s1-2.76,3.86-2.76h2.39v-.14c0-1.26-.76-2-2.31-2A4.59,4.59,0,0,0,156,108l-.85-1.58a6.54,6.54,0,0,1,3.92-1.14C161.7,105.31,163.25,106.57,163.25,109.24Zm-2.17,2.54V110.7h-2.24c-1.47,0-1.87.56-1.87,1.23s.66,1.29,1.77,1.29A2.36,2.36,0,0,0,161.08,111.78Z" transform="translate(-9.78 -10.25)"/><path class="cls-1" d="M171.59,114.17a3.38,3.38,0,0,1-2.08.63,2.85,2.85,0,0,1-3.19-3.13v-4.46h-1.53v-1.73h1.53v-2.12h2.16v2.12H171v1.73h-2.49v4.41c0,.9.46,1.39,1.29,1.39a1.94,1.94,0,0,0,1.21-.38Z" transform="translate(-9.78 -10.25)"/><path class="cls-1" d="M172.3,110a4.94,4.94,0,1,1,4.93,4.76A4.66,4.66,0,0,1,172.3,110Zm7.68,0a2.75,2.75,0,1,0-2.75,2.9A2.69,2.69,0,0,0,180,110Z" transform="translate(-9.78 -10.25)"/></svg>