<svg id="Capa_1" data-name="Capa 1" xmlns="http://www.w3.org/2000/svg" viewBox="0 0 193.91 64.81"><defs><style>.cls-1{fill:#1c1c1b;}.cls-2{fill:#fff;}</style></defs><path class="cls-1" d="M203.67,9.26a6.38,6.38,0,0,0-6-4.13H176.53A6.36,6.36,0,0,0,172,7l-4.67,4.68a6.43,6.43,0,0,0-1.42-4.17,6.35,6.35,0,0,0-5-2.37H144.75a6.32,6.32,0,0,0-5.19,2.71c-.08-.11-.13-.24-.22-.35a6.39,6.39,0,0,0-5-2.36H114.13a6.36,6.36,0,0,0-5.69,3.52l-6,12-.56-9.48a6.37,6.37,0,0,0-6.36-6H75.89a6.38,6.38,0,0,0-6.24,5L62.31,44.6a7.26,7.26,0,0,0-1.12-.13H43.25l6.8-31.63a6.36,6.36,0,0,0-6.23-7.71H27.59a6.38,6.38,0,0,0-6.24,5.05l-11,52.06a6.38,6.38,0,0,0,6.23,7.7h42a6.43,6.43,0,0,0,3.16-.84,6.39,6.39,0,0,0,3.09.84H78.16a6.36,6.36,0,0,0,4.94-2.35A6.34,6.34,0,0,0,88,69.94H99.9a6.35,6.35,0,0,0,4.93-2.35,6.38,6.38,0,0,0,4.94,2.35h13.39a6.39,6.39,0,0,0,5.25-2.79,3.74,3.74,0,0,0,.27.42,6.4,6.4,0,0,0,5,2.37h16.23a6.37,6.37,0,0,0,6.23-5.08l2.23-10.66,3.16-2.73,6.36,14.63a6.37,6.37,0,0,0,5.84,3.84H191.1a6.38,6.38,0,0,0,5.72-9.19L183,32.72l18.85-16.41A6.4,6.4,0,0,0,203.67,9.26Z" transform="translate(-10.17 -5.13)"/><path class="cls-2" d="M61.19,50.85,58.52,63.56h-42L27.59,11.5H43.82L35.36,50.85Z" transform="translate(-10.17 -5.13)"/><path class="cls-2" d="M79.36,57.19l-1.2,6.37H64.77L75.89,11.5H95.53l2,33h.14l16.51-33h20.25L123.16,63.56H109.77l9.62-39.77h-.21L99.9,63.56H88L85.8,23.79h-.14l-6.3,33.4" transform="translate(-10.17 -5.13)"/><path class="cls-2" d="M197.7,11.5,175.15,31.14,191.1,63.56H173.69L163.89,41l-11.36,9.77-2.66,12.78H133.64L144.75,11.5H161L156.76,31l.14.18L176.53,11.5Z" transform="translate(-10.17 -5.13)"/></svg>